<?xml version="1.0" encoding="utf-8"?>
<!-- Generator: Adobe Illustrator 16.0.0, SVG Export Plug-In . SVG Version: 6.00 Build 0)  -->
<!DOCTYPE svg PUBLIC "-//W3C//DTD SVG 1.0//EN" "http://www.w3.org/TR/2001/REC-SVG-20010904/DTD/svg10.dtd">
<svg version="1.0" id="Layer_1" xmlns="http://www.w3.org/2000/svg" xmlns:xlink="http://www.w3.org/1999/xlink" x="0px" y="0px"
	 width="16px" height="15px" viewBox="0 0 16 15" enable-background="new 0 0 16 15" xml:space="preserve">
<path fill-rule="evenodd" clip-rule="evenodd" fill="#9a0f30" d="M10.858,1.937c1.268-0.022,1.942,0.442,2.586,1.035
	c0.547-0.048,1.259-0.355,1.678-0.569c0.137-0.076,0.273-0.15,0.408-0.227c-0.239,0.652-0.563,1.163-1.062,1.551
	c-0.111,0.086-0.221,0.203-0.36,0.258V3.99c0.712-0.006,1.298-0.33,1.854-0.506v0.008c-0.292,0.469-0.688,0.945-1.107,1.287
	c-0.174,0.135-0.343,0.271-0.514,0.408c0.012,0.76-0.011,1.482-0.152,2.121c-0.816,3.705-2.982,6.219-6.416,7.298
	c-1.231,0.388-3.219,0.545-4.633,0.194c-0.7-0.176-1.331-0.375-1.924-0.637c-0.331-0.146-0.637-0.301-0.929-0.48
	c-0.096-0.061-0.191-0.117-0.287-0.176c0.317,0.009,0.691,0.098,1.047,0.039c0.321-0.053,0.639-0.039,0.935-0.105
	c0.741-0.164,1.399-0.379,1.966-0.714c0.273-0.161,0.692-0.353,0.887-0.586c-0.367,0.007-0.702-0.079-0.974-0.178
	c-1.061-0.376-1.679-1.069-2.079-2.111c0.321,0.036,1.247,0.121,1.463-0.063C2.838,9.766,2.45,9.529,2.172,9.355
	C1.319,8.817,0.626,7.917,0.631,6.528C0.74,6.583,0.854,6.636,0.966,6.69c0.215,0.091,0.431,0.14,0.687,0.191
	c0.109,0.022,0.323,0.087,0.446,0.041c-0.004,0-0.009,0-0.009,0C1.919,6.729,1.652,6.6,1.483,6.392
	C0.937,5.707,0.426,4.652,0.749,3.398c0.082-0.319,0.215-0.602,0.352-0.859c0.007,0.002,0.012,0.004,0.018,0.006
	C1.183,2.68,1.324,2.78,1.415,2.893c0.278,0.348,0.622,0.66,0.974,0.939C3.586,4.775,4.662,5.354,6.39,5.783
	c0.44,0.109,0.946,0.191,1.473,0.191c-0.15-0.432-0.1-1.131,0.014-1.551C8.168,3.373,8.802,2.613,9.73,2.211
	c0.221-0.099,0.467-0.17,0.727-0.227C10.59,1.967,10.722,1.953,10.858,1.937L10.858,1.937z"/>
</svg>
